<?xml version="1.0" encoding="utf-8"?><svg xmlns="http://www.w3.org/2000/svg" xmlns:xlink="http://www.w3.org/1999/xlink"><symbol viewBox="0 0 11.81 5.9" id="arrowdown" xmlns="http://www.w3.org/2000/svg"><path fill-rule="evenodd" clip-rule="evenodd" d="M6 6.333a.828.828 0 01-.533-.193l-5-4.167A.833.833 0 111.533.693l4.476 3.73L10.477.827a.834.834 0 011.046 1.299l-5 4.023A.833.833 0 016 6.333z"/></symbol><symbol viewBox="0 0 16 9" id="back" xmlns="http://www.w3.org/2000/svg"><path d="M8.5 16.5L4 12m0 0l4.5-4.5M4 12h16"/></symbol><symbol viewBox="0 0 21.5 15.5" id="card" xmlns="http://www.w3.org/2000/svg"><path fill-rule="evenodd" clip-rule="evenodd" d="M1.25 9A4.75 4.75 0 016 4.25h12A4.75 4.75 0 0122.75 9v6A4.75 4.75 0 0118 19.75H6A4.75 4.75 0 011.25 15V9zm1.587-.75h18.326A3.251 3.251 0 0018 5.75H6a3.251 3.251 0 00-3.163 2.5zm18.413 1.5H2.75V15A3.25 3.25 0 006 18.25h12A3.25 3.25 0 0021.25 15V9.75zm-8 5.25a.75.75 0 01.75-.75h4a.75.75 0 010 1.5h-4a.75.75 0 01-.75-.75z"/></symbol><symbol viewBox="0 0 15.01 16.68" id="del" xmlns="http://www.w3.org/2000/svg"><path d="M13.732 6.266h.083a.62.62 0 01.56.589l-.008.171-.262 3.21-.275 3.132c-.058.625-.11 1.152-.155 1.567-.156 1.447-1.095 2.342-2.511 2.368-2.206.041-4.327.04-6.386-.004-1.375-.029-2.3-.933-2.453-2.358l-.106-1.05-.186-2.035-.19-2.234-.217-2.682a.62.62 0 01.56-.673.612.612 0 01.643.489L2.854 7l.204 2.515.223 2.605c.1 1.129.186 2.042.255 2.683.088.812.515 1.23 1.267 1.245 2.044.045 4.148.045 6.339.005.798-.015 1.232-.43 1.321-1.256l.106-1.044.099-1.063.223-2.563.268-3.288a.617.617 0 01.573-.574zM1.11 4.824A.617.617 0 01.5 4.2a.62.62 0 01.527-.62l.082-.005h2.656a.732.732 0 00.69-.508l.025-.093.206-1.052A1.66 1.66 0 016.149.671l.13-.004h3.44c.704 0 1.325.455 1.564 1.158l.04.135.197 1.013a.738.738 0 00.622.595l.093.006h2.655c.337 0 .61.28.61.625a.62.62 0 01-.527.62l-.083.005H1.11zm8.61-2.907H6.28a.437.437 0 00-.385.231l-.022.057-.197 1.014a2.04 2.04 0 01-.104.356h4.858a2.04 2.04 0 01-.072-.219l-.032-.138-.189-.974a.435.435 0 00-.344-.321l-.072-.006z"/></symbol><symbol viewBox="0 0 20.6 20.59" id="discount" xmlns="http://www.w3.org/2000/svg"><path d="M11.951 1.716l.182.17.72.72c.246.245.57.396.914.43l.15.008h1.027a3.013 3.013 0 013.007 2.835l.005.177v1.027c0 .35.12.686.338.953l.1.11.718.72a3.012 3.012 0 01.146 4.114l-.136.145-.728.729c-.245.245-.396.57-.43.913l-.008.149v1.029a3.012 3.012 0 01-2.835 3.006l-.177.005h-1.028c-.348 0-.685.12-.953.34l-.11.099-.718.716a3.011 3.011 0 01-4.115.146l-.154-.144-.717-.717a1.515 1.515 0 00-.917-.433l-.148-.007H5.055a3.011 3.011 0 01-3.006-2.834l-.005-.177v-1.03c0-.347-.121-.684-.34-.951l-.099-.11-.717-.718A3.011 3.011 0 01.743 9.02l.135-.145.726-.727c.247-.248.399-.572.433-.917l.007-.148V6.056l.005-.177a3.013 3.013 0 012.83-2.83l.176-.005h1.03c.348 0 .684-.121.951-.338l.11-.1.719-.718C8.99.756 10.793.706 11.95 1.716zm-2.91 1.127l-.114.104-.721.722a3.012 3.012 0 01-1.924.868l-.198.007H5.055c-.787 0-1.435.604-1.505 1.374l-.006.138v1.027c0 .729-.264 1.43-.742 1.978l-.135.146-.727.728a1.51 1.51 0 00-.097 2.024l.105.115.72.72c.513.516.822 1.201.87 1.924l.006.198v1.029c0 .788.604 1.435 1.374 1.505l.137.006h1.03c.727 0 1.429.265 1.977.742l.145.136.724.723a1.512 1.512 0 002.027.1l.115-.105.721-.72a3.01 3.01 0 011.924-.87l.198-.006h1.028c.789 0 1.436-.604 1.506-1.374l.006-.137v-1.03c0-.728.265-1.431.742-1.977l.135-.145.727-.727c.552-.555.584-1.43.097-2.024l-.104-.115-.722-.722a3.01 3.01 0 01-.868-1.924l-.007-.198V6.056c0-.789-.604-1.436-1.374-1.506l-.138-.006h-1.028a3.01 3.01 0 01-1.978-.742l-.145-.135-.688-.69-.04-.037a1.512 1.512 0 00-2.023-.097zm4.056 10.2c.07.07.13.15.17.24.03.09.05.19.05.29 0 .1-.02.19-.05.28-.04.09-.1.18-.17.25a.75.75 0 01-1.06 0 .821.821 0 01-.16-.25.717.717 0 010-.57c.04-.09.09-.17.16-.24.28-.28.78-.28 1.06 0zm.003-5.144a.75.75 0 01.073.977l-.073.084-5.14 5.14a.75.75 0 01-1.133-.977l.072-.084 5.14-5.14a.75.75 0 011.061 0zm-5.144.004c.14.139.22.33.22.53 0 .1-.01.189-.05.28-.04.09-.1.17-.17.25a.773.773 0 01-.53.22c-.1 0-.19-.021-.28-.061a.818.818 0 01-.25-.16.963.963 0 01-.16-.25.714.714 0 010-.57c.04-.09.09-.18.16-.24a.772.772 0 011.06 0z"/></symbol><symbol viewBox="0 0 20 20.6" id="graph" xmlns="http://www.w3.org/2000/svg"><path d="M8.498 4.76c.087.175.14.364.155.561l.389 5.489c.005.075.04.145.099.194a.29.29 0 00.157.067l.062.001 5.574-.335c.453-.027.897.13 1.226.435.33.304.517.728.514 1.22-.247 3.612-2.901 6.632-6.515 7.415-3.614.782-7.323-.86-9.101-4.022a7.664 7.664 0 01-.944-2.61l-.048-.34A5.183 5.183 0 010 12.08l.003-.242c.01-3.772 2.659-7.033 6.385-7.913l.256-.056.137-.023c.721-.098 1.43.28 1.717.916zm-1.482.518l-.084.01-.228.051c-2.969.716-5.098 3.271-5.216 6.282l-.005.245c-.007.187 0 .373.022.572l.028.203c.1.854.375 1.68.816 2.436 1.467 2.61 4.518 3.96 7.49 3.316 2.972-.644 5.155-3.128 5.357-6.052a.158.158 0 00-.051-.116.165.165 0 00-.077-.04l-.044-.003-5.565.335a1.795 1.795 0 01-1.289-.42 1.716 1.716 0 01-.605-1.187l-.388-5.484c0-.009-.003-.018-.02-.053a.163.163 0 00-.14-.095zM11.423.001c4.285.121 7.88 3.2 8.567 7.34l.01.116-.002.202c-.024.297-.144.58-.344.808a1.46 1.46 0 01-.995.49l-6.646.433c-.851.048-1.583-.585-1.639-1.417L9.93 1.45l.005-.146.022-.165a1.41 1.41 0 01.435-.762c.282-.254.655-.39 1.031-.375zm-.012 1.448l.44 6.43c.003.038.037.068.07.066l6.597-.431-.033-.18c-.653-3.254-3.473-5.67-6.856-5.875l-.218-.01z"/></symbol><symbol viewBox="0 0 19 20.27" id="house" xmlns="http://www.w3.org/2000/svg"><path d="M7.73.788a3.633 3.633 0 014.36-.12l.16.12 6.09 4.871a2.999 2.999 0 011.15 2.13l.01.2v8.11c0 2.09-1.65 3.79-3.72 3.9h-1.99a1.83 1.83 0 01-1.79-1.69l-.01-.14v-2.86a.635.635 0 00-.54-.62l-.09-.01H8.69a.635.635 0 00-.62.54l-.01.09v2.85c0 .06-.01.13-.02.18l-.01.02-.01.07a1.822 1.822 0 01-1.69 1.56L6.2 20H4.41C2.32 20 .61 18.36.5 16.3V7.99a2.968 2.968 0 011-2.19L7.73.788zm3.65 1.09a2.256 2.256 0 00-2.64-.11l-.15.11L2.51 6.78a1.55 1.55 0 00-.61 1.06L1.89 8v8.1c0 1.33 1.04 2.42 2.36 2.5H6.2c.22 0 .41-.15.44-.36l.02-.18.01-.05v-2.7c0-1.07.82-1.94 1.87-2.02h2.82c1.07 0 1.94.82 2.02 1.87v3.01c0 .21.15.39.35.43h1.86a2.5 2.5 0 002.51-2.34l.01-.16V8a1.62 1.62 0 00-.5-1.13l-.13-.11-6.1-4.88z"/></symbol><symbol viewBox="0 0 20.54 20" id="logout" xmlns="http://www.w3.org/2000/svg"><path d="M9.331.021a4.435 4.435 0 014.43 4.227l.005.208v.933a.75.75 0 01-1.493.102l-.007-.102v-.933a2.935 2.935 0 00-2.763-2.93l-.172-.005H4.456a2.935 2.935 0 00-2.929 2.763l-.005.172v11.13a2.935 2.935 0 002.762 2.93l.172.006h4.885a2.925 2.925 0 002.92-2.753l.005-.171v-.944a.75.75 0 011.493-.101l.007.101v.944a4.425 4.425 0 01-4.21 4.418l-.215.006H4.456a4.435 4.435 0 01-4.43-4.227l-.004-.209V4.456A4.435 4.435 0 014.247.026l.209-.005h4.875zm7.995 6.481l.084.073 2.928 2.915a.74.74 0 01.071.08l-.07-.08a.758.758 0 01.129.171l.008.015a.695.695 0 01.064.173l.007.036a.61.61 0 01.012.136v.029c0 .015-.002.03-.004.046l.005-.075a.755.755 0 01-.013.137l-.008.035a.604.604 0 01-.019.068l-.01.03a.661.661 0 01-.033.073l-.01.017a.749.749 0 01-.127.17l-.002.002-2.928 2.916a.75.75 0 01-1.13-.98l.072-.083 1.639-1.636-10.222.001a.75.75 0 01-.102-1.493l.102-.007h10.224l-1.64-1.633a.75.75 0 01-.076-.977l.073-.084a.75.75 0 01.976-.075z"/></symbol><symbol viewBox="0 0 20.08 18" id="message" xmlns="http://www.w3.org/2000/svg"><path d="M15.321.758a5.518 5.518 0 013.987 1.773 5.568 5.568 0 011.479 4.086l-.002 6.237a5.6 5.6 0 01-1.477 4.13 5.522 5.522 0 01-3.995 1.774h-9.06c-3.17 0-5.457-2.561-5.457-5.859V6.617C.796 3.32 3.083.758 6.252.758h9.07zm-.017 1.528H6.252c-2.293 0-3.939 1.844-3.939 4.331v6.282c0 2.488 1.646 4.33 3.94 4.33h9.051a4.005 4.005 0 002.894-1.287A4.097 4.097 0 0019.27 12.9l.001-6.327a4.064 4.064 0 00-1.072-2.998 4.005 4.005 0 00-2.894-1.288zm1.516 4.11a.77.77 0 01-.036.998l-.082.077-4.107 3.31a2.89 2.89 0 01-3.416.115l-.161-.119-4.135-3.304a.768.768 0 01-.122-1.074.755.755 0 01.973-.187l.092.063 4.13 3.301a1.38 1.38 0 001.58.089l.118-.083 4.1-3.305a.755.755 0 011.066.12z"/></symbol><symbol viewBox="0 0 17.02 20.44" id="not" xmlns="http://www.w3.org/2000/svg"><path d="M11.608 17.69a.706.706 0 01.105.982 3.35 3.35 0 01-.596.583 3.495 3.495 0 01-4.902-.586.703.703 0 01.11-.98.684.684 0 01.968.11c.345.44.854.724 1.413.79a2.138 2.138 0 001.577-.445c.133-.1.253-.217.356-.347a.684.684 0 01.969-.106zM2.152 7l.012-.596c.01-.255.023-.492.043-.723C2.507 2.445 5.596 0 8.965 0h.071c3.367 0 6.457 2.443 6.767 5.685.018.206.026.39.028.647l.001.788c0 .072.002.135.004.194l.009.196.045.187a3.93 3.93 0 00.726 1.431l.15.177.063.08c.406.607.638 1.313.671 2.074l-.001.403a4.076 4.076 0 01-.965 2.496 4.799 4.799 0 01-3.047 1.488 41.583 41.583 0 01-8.974 0 4.874 4.874 0 01-3.086-1.524 4.07 4.07 0 01-.926-2.66v-.238A4.08 4.08 0 011.17 9.38l.068-.086a3.85 3.85 0 00.928-1.82l-.015.06L2.152 7zm6.884-5.605h-.071c-2.698 0-5.157 1.946-5.385 4.412-.012.135-.021.275-.029.422l-.016.467-.006.919-.015.142A5.251 5.251 0 012.25 10.24l.05-.057-.089.146a2.67 2.67 0 00-.313.94l-.018.19v.218a2.656 2.656 0 00.575 1.716 3.485 3.485 0 002.198 1.065c2.887.314 5.8.314 8.7 0a3.418 3.418 0 002.156-1.031c.412-.494.63-1.117.614-1.773v-.164a2.586 2.586 0 00-.435-1.323l.016.026-.138-.162a5.33 5.33 0 01-1.013-1.997l-.065-.276-.013-.092a7.52 7.52 0 01-.018-.4l-.003-.905a6.69 6.69 0 00-.022-.548c-.237-2.472-2.697-4.418-5.395-4.418z"/></symbol><symbol viewBox="0 0 18 18" id="plus" xmlns="http://www.w3.org/2000/svg"><path d="M10 1v9m0 9v-9m0 0h9m-9 0H1"/></symbol><symbol viewBox="0 0 15 15" id="search" xmlns="http://www.w3.org/2000/svg"><path fill-rule="evenodd" clip-rule="evenodd" d="M2.167 6.667c0-2.758 2.242-5 5-5 2.757 0 5 2.242 5 5 0 2.757-2.243 5-5 5-2.758 0-5-2.243-5-5zm13.089 6.91l-2.83-2.83a6.626 6.626 0 001.407-4.08A6.674 6.674 0 007.167 0 6.674 6.674 0 00.5 6.667a6.674 6.674 0 006.667 6.666 6.627 6.627 0 004.08-1.406l2.83 2.829a.831.831 0 001.179 0 .832.832 0 000-1.178z"/></symbol><symbol viewBox="0 0 19.62 20" id="settings" xmlns="http://www.w3.org/2000/svg"><path d="M10.616 0c.71 0 1.388.28 1.882.779.495.498.762 1.17.74 1.799l.009.147c.017.146.065.286.144.416.152.255.402.44.695.514.292.074.602.032.896-.137l.164-.082c1.23-.567 2.705-.117 3.387 1.043l.613 1.043c.017.027.03.056.043.085l.057.111a2.536 2.536 0 01-.884 3.204l-.257.159a1.102 1.102 0 00-.33.356 1.094 1.094 0 00-.117.847c.078.287.27.53.56.695l.166.105c.505.346.869.855 1.028 1.439.18.659.083 1.36-.272 1.957l-.66 1.077-.1.152c-.774 1.092-2.279 1.425-3.427.776l-.136-.069a1.19 1.19 0 00-.435-.1 1.128 1.128 0 00-1.143 1.154l-.008.171C13.12 18.971 11.985 20 10.616 20H9.381c-1.449 0-2.623-1.15-2.622-2.525l-.008-.147a1.045 1.045 0 00-.148-.422 1.125 1.125 0 00-.688-.519 1.19 1.19 0 00-.9.134l-.177.087a2.674 2.674 0 01-1.794.129 2.606 2.606 0 01-1.57-1.215l-.637-1.078-.085-.16a2.527 2.527 0 011.03-3.296l.104-.065c.309-.21.494-.554.494-.923 0-.401-.219-.772-.6-.988l-.156-.098A2.542 2.542 0 01.86 5.507l.65-1.045a2.646 2.646 0 013.552-.96l.134.07c.135.06.283.093.425.094.626 0 1.137-.492 1.146-1.124l.009-.194A2.54 2.54 0 017.528.755 2.642 2.642 0 019.381 0h1.235zm0 1.448H9.381c-.302 0-.592.118-.806.328a1.094 1.094 0 00-.325.66l-.013.305C8.133 4.072 7 5.114 5.613 5.114a2.619 2.619 0 01-1.069-.244l-.192-.1a1.163 1.163 0 00-1.571.43l-.65 1.045a1.103 1.103 0 00.312 1.464l.26.162A2.556 2.556 0 013.859 10c0 .845-.424 1.634-1.156 2.13l-.156.096c-.512.29-.71.918-.472 1.412l.056.107.63 1.063a1.16 1.16 0 001.442.494l.109-.052a2.652 2.652 0 011.986-.261 2.591 2.591 0 011.925 2.21l.02.353c.062.563.548 1 1.14 1h1.234c.598 0 1.094-.45 1.14-1l.006-.11a2.536 2.536 0 01.766-1.824 2.65 2.65 0 011.877-.75c.35.01.695.087 1.048.242l.316.158c.496.213 1.084.058 1.382-.361l.073-.111.644-1.052a1.1 1.1 0 00-.303-1.455l-.273-.17a2.563 2.563 0 01-1.062-1.462 2.513 2.513 0 01.265-1.944c.19-.326.451-.606.792-.838l.161-.099c.512-.293.71-.921.473-1.417l-.07-.134-.013-.028-.585-.995a1.157 1.157 0 00-1.34-.513l-.111.044-.104.051a2.661 2.661 0 01-1.984.272 2.607 2.607 0 01-1.596-1.18 2.488 2.488 0 01-.342-1.021l-.014-.253a1.11 1.11 0 00-.323-.814 1.158 1.158 0 00-.823-.34zm-.613 5.284c1.842 0 3.336 1.463 3.336 3.268 0 1.805-1.494 3.268-3.336 3.268-1.842 0-3.336-1.463-3.336-3.268 0-1.805 1.494-3.268 3.336-3.268zm0 1.448c-1.026 0-1.858.815-1.858 1.82 0 1.005.832 1.82 1.858 1.82 1.026 0 1.858-.815 1.858-1.82 0-1.005-.832-1.82-1.858-1.82z"/></symbol></svg>