<svg width="24" height="24" viewBox="0 0 24 24" fill="none" xmlns="http://www.w3.org/2000/svg">
<path fill-rule="evenodd" clip-rule="evenodd" d="M1.24998 9.0001C1.24998 6.37675 3.37662 4.2501 5.99998 4.2501H18C20.6233 4.2501 22.75 6.37675 22.75 9.0001V15.0001C22.75 17.6235 20.6233 19.7501 18 19.7501H5.99998C3.37662 19.7501 1.24998 17.6235 1.24998 15.0001V9.0001ZM2.83694 8.2501H21.163C20.8244 6.81675 19.5368 5.7501 18 5.7501H5.99998C4.46318 5.7501 3.17552 6.81675 2.83694 8.2501ZM21.25 9.7501H2.74998V15.0001C2.74998 16.795 4.20505 18.2501 5.99998 18.2501H18C19.7949 18.2501 21.25 16.795 21.25 15.0001V9.7501ZM13.25 15.0001C13.25 14.5859 13.5858 14.2501 14 14.2501H18C18.4142 14.2501 18.75 14.5859 18.75 15.0001C18.75 15.4143 18.4142 15.7501 18 15.7501H14C13.5858 15.7501 13.25 15.4143 13.25 15.0001Z" fill="#3B5162"/>
</svg>