<svg width="20" height="21" viewBox="0 0 20 21" fill="none" xmlns="http://www.w3.org/2000/svg">
<path d="M11.9511 1.71645L12.1335 1.88645L12.8522 2.6052C13.0991 2.85092 13.4229 3.00242 13.7674 3.03646L13.9161 3.04378H14.9441C16.5479 3.04378 17.8594 4.29795 17.951 5.87883L17.9561 6.05578V7.08278C17.9561 7.43258 18.0767 7.76886 18.2943 8.03624L18.3935 8.14645L19.1123 8.86525C20.2438 9.99165 20.2943 11.7929 19.2577 12.98L19.1225 13.1251L18.3941 13.8535C18.1491 14.099 17.9975 14.4231 17.9635 14.7672L17.9561 14.9158V15.9448C17.9561 17.5485 16.702 18.8591 15.1211 18.9507L14.9441 18.9558H13.9161C13.5676 18.9558 13.2309 19.0769 12.9633 19.2951L12.8531 19.3945L12.1353 20.1113C11.0101 21.2442 9.20747 21.2944 8.01994 20.2574L7.8658 20.1131L7.14868 19.396C6.90029 19.1494 6.57585 18.9973 6.23235 18.9631L6.08413 18.9558H5.05513C3.452 18.9558 2.14085 17.7023 2.04924 16.1217L2.04413 15.9448V14.9158C2.04413 14.5678 1.92283 14.2308 1.70475 13.9637L1.60543 13.8537L0.8883 13.1356C-0.244275 12.0094 -0.294513 10.2068 0.742507 9.02044L0.877797 8.87545L1.60392 8.14834C1.85087 7.89963 2.00269 7.57581 2.03679 7.23146L2.04413 7.08278V6.05578L2.04924 5.87885C2.13746 4.35668 3.35663 3.13715 4.87826 3.0489L5.05513 3.04378H6.08413C6.43261 3.04378 6.76938 2.9229 7.03642 2.70572L7.14643 2.60682L7.8646 1.88765C8.99096 0.756177 10.7934 0.706363 11.9511 1.71645ZM9.04154 2.84256L8.92683 2.94674L8.20557 3.66899C7.68832 4.18258 7.0042 4.48966 6.28195 4.53727L6.08413 4.54378H5.05513C4.26756 4.54378 3.61985 5.14793 3.55031 5.91821L3.54413 6.05578V7.08278C3.54413 7.81195 3.27952 8.5131 2.80223 9.06116L2.66683 9.20674L1.93966 9.93491C1.38784 10.4892 1.35572 11.3649 1.84337 11.9589L1.94783 12.0738L2.66709 12.7941C3.18149 13.3097 3.48978 13.995 3.53759 14.7178L3.54413 14.9158V15.9448C3.54413 16.7328 4.14783 17.3801 4.91764 17.4496L5.05513 17.4558H6.08413C6.81192 17.4558 7.51367 17.7207 8.06186 18.198L8.20746 18.3335L8.93077 19.0568C9.48899 19.6119 10.3649 19.6442 10.9584 19.1565L11.0732 19.0521L11.7941 18.3322C12.3108 17.8179 12.9952 17.5101 13.7181 17.4623L13.9161 17.4558H14.9441C15.7328 17.4558 16.3804 16.8524 16.4499 16.0823L16.4561 15.9448V14.9158C16.4561 14.1869 16.7209 13.4839 17.1976 12.9383L17.3328 12.7935L18.0603 12.066C18.6121 11.511 18.6441 10.6358 18.1571 10.0419L18.0528 9.92711L17.3309 9.20523C16.817 8.68765 16.5102 8.00422 16.4626 7.28094L16.4561 7.08278V6.05578C16.4561 5.26737 15.8521 4.61951 15.0817 4.54996L14.9441 4.54378H13.9161C13.187 4.54378 12.4849 4.27939 11.938 3.80243L11.7928 3.66711L11.1049 2.97734L11.065 2.94031C10.5107 2.38855 9.63486 2.35624 9.04154 2.84256ZM13.0965 13.0424C13.1665 13.1124 13.2265 13.1924 13.2665 13.2824C13.2965 13.3724 13.3165 13.4724 13.3165 13.5724C13.3165 13.6734 13.2965 13.7624 13.2665 13.8524C13.2265 13.9424 13.1665 14.0324 13.0965 14.1024C12.9565 14.2424 12.7665 14.3224 12.5665 14.3224C12.3665 14.3224 12.1765 14.2424 12.0365 14.1024C11.9665 14.0324 11.9165 13.9424 11.8765 13.8524C11.8365 13.7624 11.8165 13.6734 11.8165 13.5724C11.8165 13.4724 11.8365 13.3724 11.8765 13.2824C11.9165 13.1924 11.9665 13.1124 12.0365 13.0424C12.3165 12.7624 12.8165 12.7624 13.0965 13.0424ZM13.1002 7.89915C13.3664 8.16542 13.3906 8.58208 13.1728 8.87569L13.1002 8.95981L7.96016 14.0998C7.66726 14.3927 7.19239 14.3927 6.8995 14.0998C6.63323 13.8335 6.60902 13.4169 6.82688 13.1233L6.8995 13.0392L12.0395 7.89915C12.3324 7.60626 12.8073 7.60626 13.1002 7.89915ZM7.95643 7.90278C8.09643 8.04178 8.17643 8.23278 8.17643 8.43278C8.17643 8.53278 8.16643 8.62178 8.12643 8.71278C8.08643 8.80278 8.02643 8.88278 7.95643 8.96278C7.88643 9.03278 7.80643 9.08178 7.71643 9.12178C7.62643 9.16178 7.52643 9.18278 7.42643 9.18278C7.32643 9.18278 7.23643 9.16178 7.14643 9.12178C7.05643 9.08178 6.96643 9.03278 6.89643 8.96278C6.82643 8.88278 6.77643 8.80278 6.73643 8.71278C6.69643 8.62178 6.67643 8.53278 6.67643 8.43278C6.67643 8.33178 6.69643 8.23278 6.73643 8.14278C6.77643 8.05278 6.82643 7.96278 6.89643 7.90278C7.18643 7.62178 7.67643 7.62178 7.95643 7.90278Z" fill="#EA7C69"/>
</svg>
